<?xml version="1.0" encoding="utf-8"?>
<!-- Generator: Adobe Illustrator 27.0.0, SVG Export Plug-In . SVG Version: 6.00 Build 0)  -->
<svg version="1.1" id="Layer_1" xmlns="http://www.w3.org/2000/svg" xmlns:xlink="http://www.w3.org/1999/xlink" x="0px" y="0px"
	 viewBox="0 0 1137.9 263.3" style="enable-background:new 0 0 1137.9 263.3;" xml:space="preserve">
<style type="text/css">
	.st0{fill:#33394C;}
	.st1{fill:#0145BD;}
</style>
<g>
	<g>
		<path class="st0" d="M302.9,192V62.4h26.9v49.4h50.4V62.4H407v129.5h-26.9v-57.8h-50.4v57.8L302.9,192L302.9,192z"/>
		<path class="st0" d="M460,133.7c4.7-0.6,8-1.3,10-2.2c3.6-1.5,5.4-3.9,5.4-7.1c0-3.9-1.3-6.6-4.1-8.1c-2.8-1.5-6.8-2.3-12.2-2.3
			c-6,0-10.2,1.4-12.8,4.4c-1.8,2.2-2.9,5.1-3.5,8.8h-24.2c0.5-8.4,2.9-15.3,7.1-20.6c6.6-8.5,18-12.7,34.2-12.7
			c10.5,0,19.9,2.1,28,6.2c8.1,4.2,12.3,12,12.3,23.6v44c0,3,0.1,6.7,0.2,11.1c0.2,3.3,0.7,5.5,1.5,6.7s2,2.1,3.7,2.9v3.7h-27.2
			c-0.8-1.9-1.3-3.8-1.6-5.5c-0.3-1.7-0.5-3.6-0.7-5.8c-3.4,3.8-7.5,7-12,9.6c-5.5,3.1-11.6,4.6-18.4,4.6c-8.7,0-15.9-2.4-21.7-7.4
			s-8.6-12-8.6-21.1c0-11.8,4.6-20.3,13.7-25.6c5-2.9,12.4-5,22.2-6.1L460,133.7z M475.3,145.4c-1.6,1-3.2,1.8-4.9,2.4
			c-1.6,0.6-3.9,1.2-6.7,1.7l-5.7,1.1c-5.4,0.9-9.1,2.1-11.5,3.4c-3.9,2.3-5.9,5.8-5.9,10.7c0,4.3,1.2,7.4,3.6,9.2
			c2.4,1.9,5.4,2.9,8.8,2.9c5.5,0,10.5-1.6,15.1-4.8s7-8.9,7.2-17.3V145.4L475.3,145.4z"/>
		<path class="st0" d="M593.7,106.5c7.8,8.2,11.8,20.4,11.8,36.3c0,16.9-3.8,29.7-11.4,38.6c-7.6,8.8-17.5,13.3-29.5,13.3
			c-7.6,0-14-1.9-19.1-5.7c-2.8-2.1-5.5-5.2-8.1-9.2v49.9h-24.8V96.1h24v14.2c2.7-4.2,5.6-7.5,8.6-9.8c5.6-4.3,12.3-6.4,20-6.4
			C576.4,94,585.9,98.2,593.7,106.5z M574.4,124.4c-3.4-5.7-8.9-8.6-16.5-8.6c-9.1,0-15.4,4.3-18.9,12.9c-1.8,4.5-2.7,10.4-2.7,17.4
			c0,11.2,3,19,9,23.5c3.5,2.6,7.7,3.9,12.6,3.9c7.1,0,12.4-2.7,16.1-8.1c3.7-5.4,5.5-12.6,5.5-21.6
			C579.6,136.7,577.9,130.1,574.4,124.4z"/>
		<path class="st0" d="M694.6,106.5c7.8,8.2,11.8,20.4,11.8,36.3c0,16.9-3.8,29.7-11.4,38.6c-7.6,8.8-17.5,13.3-29.5,13.3
			c-7.6,0-14-1.9-19.1-5.7c-2.8-2.1-5.5-5.2-8.1-9.2v49.9h-24.8V96.1h24v14.2c2.7-4.2,5.6-7.5,8.6-9.8c5.6-4.3,12.3-6.4,20-6.4
			C677.3,94,686.8,98.2,694.6,106.5z M675.4,124.4c-3.4-5.7-8.9-8.6-16.5-8.6c-9.1,0-15.4,4.3-18.9,12.9c-1.8,4.5-2.7,10.4-2.7,17.4
			c0,11.2,3,19,9,23.5c3.5,2.6,7.7,3.9,12.6,3.9c7.1,0,12.4-2.7,16.1-8.1c3.7-5.4,5.5-12.6,5.5-21.6
			C680.5,136.7,678.8,130.1,675.4,124.4z"/>
		<path class="st0" d="M718.8,210.3l3.2,0.2c2.4,0.1,4.8,0,7.1-0.3s4.1-1,5.6-2c1.4-1,2.9-3.1,4.1-6.2c1.3-3.2,1.8-5.1,1.6-5.8
			l-35.3-100H733l20.9,70.7l19.8-70.7h26.6l-32.8,94.2c-6.4,18.1-11.3,29.5-15,33.8s-11.1,6.5-22.2,6.5c-2.3,0-4,0-5.4-0.1
			c-1.3,0-3.4-0.2-6-0.3L718.8,210.3L718.8,210.3z"/>
		<path class="st0" d="M884.1,65.3c9.1,3,16.5,8.5,22.1,16.5c4.5,6.5,7.6,13.4,9.2,20.9c1.7,7.5,2.4,14.7,2.4,21.4
			c0,17.2-3.4,31.8-10.4,43.7c-9.4,16.1-23.8,24.2-43.5,24.2h-55.7V62.4H864C872.1,62.6,878.7,63.5,884.1,65.3z M834.5,84.9v84.5h25
			c12.8,0,21.7-6.3,26.8-18.9c2.8-6.9,4.1-15.1,4.1-24.7c0-13.2-2.1-23.3-6.2-30.4s-12.3-10.6-24.7-10.6L834.5,84.9L834.5,84.9z"/>
		<path class="st0" d="M989.6,98.1c6.7,3,12.2,7.7,16.5,14.2c3.9,5.7,6.5,12.3,7.6,19.8c0.7,4.4,0.9,10.7,0.8,19.1h-69.7
			c0.4,9.6,3.7,16.4,10,20.2c3.9,2.4,8.4,3.6,13.8,3.6c5.7,0,10.3-1.4,13.9-4.4c1.9-1.6,3.7-3.8,5.1-6.6h25.6
			c-0.7,5.7-3.8,11.4-9.3,17.3c-8.6,9.3-20.6,13.9-36,13.9c-12.8,0-24-3.9-33.7-11.8c-9.7-7.9-14.6-20.6-14.6-38.4
			c0-16.6,4.4-29.3,13.2-38.2C941.6,98,953,93.5,967,93.5C975.4,93.6,982.8,95.1,989.6,98.1z M952,119.7c-3.5,3.6-5.8,8.6-6.6,14.9
			h43.1c-0.4-6.6-2.7-11.7-6.6-15.1c-4-3.4-9-5.2-14.9-5.2C960.6,114.3,955.6,116.1,952,119.7z"/>
		<path class="st0" d="M1080.6,98.1c6.7,3,12.2,7.7,16.5,14.2c3.9,5.7,6.5,12.3,7.6,19.8c0.7,4.4,0.9,10.7,0.8,19.1h-69.7
			c0.4,9.6,3.7,16.4,10,20.2c3.9,2.4,8.4,3.6,13.8,3.6c5.7,0,10.3-1.4,13.9-4.4c1.9-1.6,3.7-3.8,5.1-6.6h25.6
			c-0.7,5.7-3.8,11.4-9.3,17.3c-8.6,9.3-20.6,13.9-36,13.9c-12.8,0-24-3.9-33.7-11.8c-9.7-7.9-14.6-20.6-14.6-38.4
			c0-16.6,4.4-29.3,13.2-38.2c8.8-8.8,20.2-13.3,34.2-13.3C1066.4,93.6,1073.9,95.1,1080.6,98.1z M1043.2,119.7
			c-3.5,3.6-5.8,8.6-6.6,14.9h43.1c-0.4-6.6-2.7-11.7-6.6-15.1c-4-3.4-9-5.2-14.9-5.2C1051.7,114.3,1046.7,116.1,1043.2,119.7z"/>
		<path class="st0" d="M1134.8,192h-25V62.4h25V192z"/>
	</g>
	<path class="st1" d="M228.5,131.7c0,40.9-0.1,81.8,0.1,122.7c0,5.1-1.3,6.6-6.5,6.6c-70.8-0.2-141.7-0.2-212.5,0
		c-4.8,0-6.5-1.2-6.5-6.2c0.2-82.3,0.2-164.7,0.1-247c0-4.4,1.2-6.4,5.9-5.4c2.1,0.4,4.4,0.2,6.6,0.2c68.7,0,137.2,0,205.9,0
		c7,0,7,0,7,6.8C228.5,50.2,228.5,91,228.5,131.7z M51.6,33.5c-1.5,0-3.1,0-4.6,0C31.2,34,33.3,32.1,35.7,47.3
		c7.5,46.3,50.3,73.3,91.1,67.9c38.7-5.1,69.6-38.2,70.9-77.3c0.1-3.4-1.2-4.4-4.4-4.4c-6.8,0.1-13.6,0-20.4,0c-7.9,0-7.9,0-9.1,7.6
		c-3.4,21.8-22.2,39.5-43.4,40.7C96.2,83.2,75.9,69,69.8,46.3c-1.2-4.2-1-10.2-3.7-12.2c-3.1-2.2-8.8-0.7-13.4-0.8
		C52.2,33.5,51.9,33.5,51.6,33.5z"/>
</g>
</svg>
